<svg xmlns="http://www.w3.org/2000/svg" viewBox="0 0 30.72 26.04"><defs><style>.cls-1{fill:#000200;fill-rule:evenodd;}</style></defs><title>Ресурс 1</title><g id="Слой_2" data-name="Слой 2"><g id="Capa_1" data-name="Capa 1"><path class="cls-1" d="M4.2,18.18a5.69,5.69,0,0,1,1.31-4.27,4.6,4.6,0,0,1,3.31-1.43c2,0,3.79.54,5.22.54a24.22,24.22,0,0,0,4.27-.17c1.7-.24,3.57-.59,5.14-.11a4.22,4.22,0,0,1,2.18,1.65A6.87,6.87,0,0,1,25.74,21C24.3,23.38,21,24.18,18,24.18a44,44,0,0,1-8.4-.36c-2.87-.59-5.4-2.42-5.4-5.64ZM19,17.58A4.37,4.37,0,0,0,20.21,21c1.78,1.43,3.49-1,3.49-3.19,0-3-2.7-5.1-4.12-2.44A5.2,5.2,0,0,0,19,17.58ZM7,17.88c0,3.06,2.57,5.06,4.12,2.5a5.41,5.41,0,0,0,.06-4.94,1.94,1.94,0,0,0-3.6.08A5.54,5.54,0,0,0,7,17.88ZM30.72,14a14.62,14.62,0,0,0-.4-2.82,10.9,10.9,0,0,0-1.94-3.88c-.3-.37-.06-.17.19-1.43A9.38,9.38,0,0,0,28,.34C27.86,0,27.9,0,27.48,0a9.43,9.43,0,0,0-5.91,2.38c-.85.64-.12.57-2,.25A24.62,24.62,0,0,0,10.2,3c-.23.05-.19.15-.64-.26A10.46,10.46,0,0,0,3.24,0c-.43,0-.38-.09-.65.73A8.55,8.55,0,0,0,2,3.66a10.72,10.72,0,0,0,.54,3.6A2.87,2.87,0,0,0,2,7.87c-.17.23-.3.43-.47.68A10.78,10.78,0,0,0,0,14c0,3.73.15,5.14,2.08,8l1.18,1.21c.33.25.61.45,1,.67C7.45,25.89,12,26,16.56,26c4.06,0,9.55-.69,12.25-4.07.11-.14.21-.29.33-.45a10.94,10.94,0,0,0,1.58-5.64Z"/></g></g></svg>