<svg xmlns="http://www.w3.org/2000/svg" viewBox="0 0 472.62 393.85"><title>Ресурс 3</title><g id="Слой_2" data-name="Слой 2"><g id="Layer_1" data-name="Layer 1"><rect x="193.34" y="118.15" width="204.08" height="21.48" rx="7.45"/><rect x="193.34" y="343.72" width="139.64" height="50.13" rx="7.45"/><path d="M0,7.45V207.37a7.46,7.46,0,0,0,7.45,7.46h157a7.46,7.46,0,0,0,7.45-7.46V104.12a7.46,7.46,0,0,1,7.45-7.45H368.49a7.44,7.44,0,0,0,7.45-7.45V7.45A7.45,7.45,0,0,0,368.49,0H7.45A7.46,7.46,0,0,0,0,7.45Z"/><rect y="236.31" width="171.87" height="42.97" rx="7.45"/><path d="M128.9,308.21v6.58a7.46,7.46,0,0,1-7.46,7.45H103.29a7.45,7.45,0,0,0-7.45,7.45v6.58a7.46,7.46,0,0,0,7.45,7.45h61.12a7.46,7.46,0,0,0,7.45-7.45V308.21a7.45,7.45,0,0,0-7.45-7.45H136.35A7.44,7.44,0,0,0,128.9,308.21Z"/><path d="M193.34,168.57V314.79a7.46,7.46,0,0,0,7.46,7.45H325.53a7.46,7.46,0,0,0,7.45-7.45V190.05a7.46,7.46,0,0,1,7.45-7.45H390a7.45,7.45,0,0,0,7.46-7.45v-6.58a7.46,7.46,0,0,0-7.46-7.45H200.8A7.46,7.46,0,0,0,193.34,168.57Z"/><rect x="354.46" y="365.19" width="118.15" height="28.64" rx="7.45"/><rect x="354.46" y="204.08" width="118.15" height="21.48" rx="7.45"/><rect x="354.46" y="247.04" width="118.15" height="96.67" rx="7.45"/></g></g></svg>