<svg xmlns="http://www.w3.org/2000/svg" viewBox="0 0 30.72 17.52"><defs><style>.cls-1{fill:#000200;fill-rule:evenodd;}</style></defs><title>Ресурс 4</title><g id="Слой_2" data-name="Слой 2"><g id="Capa_1" data-name="Capa 1"><path class="cls-1" d="M18,15.84c.08-1.23.63-3.15,2-2.1a20.22,20.22,0,0,1,2.26,2.35,3.9,3.9,0,0,0,3.24,1.43,25.75,25.75,0,0,0,4.48-.2c2.19-.79-1.69-4.43-2.64-5.24a16.7,16.7,0,0,1-1.19-1.19,1.27,1.27,0,0,1-.29-1.6l1.47-2.07a41.06,41.06,0,0,0,2.43-3.4c.56-.91,1.71-2.7.23-3a43.2,43.2,0,0,0-4.56,0c-2,0-1.62-.21-2.62,2.1C22.15,4.47,20.09,8.09,19,8.5c-2,.77-.44-6.56-1.29-7.83-.52-.77-2.92-.67-4-.66-1.3,0-3.1.09-3.48,1.16.12.1,0,0,.22.12a6.08,6.08,0,0,1,.69.23,1.77,1.77,0,0,1,.59.56c.61,1,.54,5.12,0,6.12-1,1.88-3.73-3.39-4.21-4.32C6.84,2.54,6.57,1.23,5.8.9A27.23,27.23,0,0,0,1.23.81C.45.82-.22,1,.07,1.87A17,17,0,0,0,.79,3.46,51.82,51.82,0,0,0,6,12.31c2,2.72,5.08,5.13,8.91,5.16C17.66,17.49,17.86,17.61,18,15.84Z"/></g></g></svg>